<?xml version="1.0" encoding="utf-8"?>
<!-- Generator: Adobe Illustrator 27.7.0, SVG Export Plug-In . SVG Version: 6.00 Build 0)  -->
<svg version="1.1" id="Layer_1" xmlns="http://www.w3.org/2000/svg" xmlns:xlink="http://www.w3.org/1999/xlink" x="0px" y="0px"
	 viewBox="0 0 595.28 841.89" style="enable-background:new 0 0 595.28 841.89;" xml:space="preserve">
<style type="text/css">
	.st0{fill:none;stroke:#374CA0;stroke-miterlimit:10;}
	.st1{fill:#F26933;}
	.st2{stroke:#FFFFFF;stroke-miterlimit:10;}
	.st3{fill:none;stroke:#363795;stroke-miterlimit:10;}
</style>
<g>
	<line class="st0" x1="163.89" y1="546.75" x2="422.89" y2="546.75"/>
	<circle class="st1" cx="150.89" cy="546.75" r="11.95"/>
	<circle class="st1" cx="435.89" cy="546.75" r="11.95"/>
</g>
<g>
	<line class="st0" x1="163.89" y1="580.38" x2="422.89" y2="580.38"/>
	<circle class="st1" cx="150.89" cy="580.38" r="11.95"/>
	<circle class="st1" cx="435.89" cy="580.38" r="11.95"/>
</g>
<g>
	<line class="st0" x1="163.89" y1="614.01" x2="422.89" y2="614.01"/>
	<circle class="st1" cx="150.89" cy="614.01" r="11.95"/>
	<circle class="st1" cx="435.89" cy="614.01" r="11.95"/>
</g>
<g>
	<line class="st0" x1="163.89" y1="647.64" x2="422.89" y2="647.64"/>
	<circle class="st1" cx="150.89" cy="647.64" r="11.95"/>
	<circle class="st1" cx="435.89" cy="647.64" r="11.95"/>
</g>
<g>
	<line class="st0" x1="163.89" y1="681.28" x2="422.89" y2="681.28"/>
	<circle class="st1" cx="150.89" cy="681.28" r="11.95"/>
	<circle class="st1" cx="435.89" cy="681.28" r="11.95"/>
</g>
<g>
	<line class="st0" x1="163.89" y1="714.91" x2="422.89" y2="714.91"/>
	<circle class="st1" cx="150.89" cy="714.91" r="11.95"/>
	<circle class="st1" cx="435.89" cy="714.91" r="11.95"/>
</g>
<g>
	<g>
		<ellipse class="st2" cx="297.5" cy="274.5" rx="223.5" ry="166.5"/>
	</g>
	<line class="st0" x1="297.5" y1="401.5" x2="297.5" y2="142.5"/>
	<line class="st0" x1="216.06" y1="338.28" x2="378.94" y2="205.72"/>
	<line class="st3" x1="386.03" y1="328.46" x2="208.97" y2="215.54"/>
	<circle class="st1" cx="297.5" cy="129.05" r="11.95"/>
	<g>
		<line class="st0" x1="168" y1="272" x2="427" y2="272"/>
		<circle class="st1" cx="155" cy="272" r="11.95"/>
		<circle class="st1" cx="440" cy="272" r="11.95"/>
	</g>
	<circle class="st1" cx="297.5" cy="414.95" r="11.95"/>
	<circle class="st1" cx="392.32" cy="332.47" r="5.97"/>
	<circle class="st1" cx="383" cy="202.42" r="5.97"/>
	<circle class="st1" cx="212" cy="341.58" r="5.97"/>
	<circle class="st1" cx="202.68" cy="211.53" r="5.97"/>
	<line class="st3" x1="357.91" y1="358.11" x2="237.36" y2="186.16"/>
	<circle class="st1" cx="362.2" cy="364.23" r="5.97"/>
	<circle class="st1" cx="233.07" cy="180.05" r="5.97"/>
	<line class="st3" x1="325.49" y1="373.2" x2="269.51" y2="170.8"/>
	<circle class="st1" cx="327.48" cy="380.39" r="5.97"/>
	<circle class="st1" cx="267.52" cy="163.61" r="5.97"/>
	<line class="st3" x1="272.31" y1="374.4" x2="322.97" y2="170.6"/>
	<circle class="st1" cx="270.5" cy="381.64" r="5.97"/>
	<circle class="st1" cx="324.77" cy="163.35" r="5.97"/>
	<line class="st3" x1="238.08" y1="358.76" x2="358.16" y2="186.48"/>
	<circle class="st1" cx="233.81" cy="364.88" r="5.97"/>
	<circle class="st1" cx="362.43" cy="180.35" r="5.97"/>
	<line class="st3" x1="197.39" y1="303.22" x2="398.03" y2="241.2"/>
	<circle class="st1" cx="190.26" cy="305.43" r="5.97"/>
	<circle class="st1" cx="405.16" cy="238.99" r="5.97"/>
</g>
</svg>
